<?xml version="1.0" encoding="UTF-8"?> <svg xmlns="http://www.w3.org/2000/svg" id="_Слой_2" data-name="Слой 2" viewBox="0 0 418.5 115.27"><defs><style> .cls-1 { fill: #c31625; } </style></defs><g id="Layer_1" data-name="Layer 1"><g><polygon class="cls-1" points="153.18 68.72 142.37 95.89 131.56 68.72 111.01 68.72 111.01 114.64 126.07 114.64 126.07 88.77 136.37 114.64 148.37 114.64 158.67 88.77 158.67 114.64 173.73 114.64 173.73 68.72 153.18 68.72"></polygon><polygon class="cls-1" points="316.69 80.48 316.69 68.72 277.87 68.72 277.87 114.64 316.69 114.64 316.69 102.88 292.92 102.88 292.92 96.86 313.97 96.86 313.97 85.1 292.92 85.1 292.92 80.48 316.69 80.48"></polygon><path class="cls-1" d="m403.44,114.64h15.06l-16.5-45.92h-20.7l-16.5,45.92h15.06l2.7-7.51h18.18l2.7,7.51Zm-16.65-19.28l4.86-13.53,4.86,13.53h-9.73Z"></path><path class="cls-1" d="m222.26,75.02c-4.92-4.88-12.25-6.92-19.04-6.92-7.7,0-14.24,2.03-19.04,6.92-4.48,4.57-6.36,10.79-6.36,16.66,0,6.72,1.76,12.1,6.36,16.66,4.92,4.88,12.25,6.92,19.04,6.92,7.7,0,14.24-2.03,19.04-6.92,4.48-4.57,6.36-10.79,6.36-16.66,0-6.72-1.76-12.1-6.36-16.66Zm-11.92,25.06c-1.95,2.03-4.25,2.8-7.12,2.8-2.51,0-5.17-.83-7.12-2.8-2.09-2.12-2.96-5-2.96-8.4,0-2.99.87-6.23,2.96-8.4,1.95-2.03,4.25-2.8,7.12-2.8,2.51,0,5.17.83,7.12,2.8,2.09,2.12,2.96,5,2.96,8.4,0,2.99-.87,6.23-2.96,8.4Z"></path><path class="cls-1" d="m101.3,75.02c-4.92-4.88-12.25-6.92-19.04-6.92-7.7,0-14.24,2.03-19.04,6.92-4.48,4.57-6.36,10.79-6.36,16.66,0,6.72,1.76,12.1,6.36,16.66,4.92,4.88,12.25,6.92,19.04,6.92,7.7,0,14.24-2.03,19.04-6.92,4.48-4.57,6.36-10.79,6.36-16.66,0-6.72-1.76-12.1-6.36-16.66Zm-11.92,25.06c-1.95,2.03-4.25,2.8-7.12,2.8-2.51,0-5.17-.83-7.12-2.8-2.09-2.12-2.96-5-2.96-8.4,0-2.99.87-6.23,2.96-8.4,1.95-2.03,4.25-2.8,7.12-2.8,2.51,0,5.17.83,7.12,2.8,2.09,2.12,2.96,5,2.96,8.4,0,2.99-.87,6.23-2.96,8.4Z"></path><path class="cls-1" d="m56.68,101.19h-7.6l-11.66-32.45h-19.45l-11.66,32.45H0v13.45h56.68v-13.45Zm-28.99-16.48l6.02,16.48h-12.19l6.16-16.48Z"></path><path class="cls-1" d="m353.48,96.4c-4.31-.97-8.21-2.72-8.21-2.72l21.21-24.96h-20.03l-9.3,14.25v-14.25h-16.33v45.92h16.33v-11.84c10.46,13.17,25.81,11.84,25.81,11.84l-.24-18.14s-3.38,1.21-9.24-.11Z"></path><polygon class="cls-1" points="275.87 68.72 229.95 68.72 229.95 80.48 245.38 80.48 245.38 114.64 260.44 114.64 260.44 80.48 275.87 80.48 275.87 68.72"></polygon><path class="cls-1" d="m164.1,25.71c.04-4.03.68-7.88,1.82-11.49L155.99.22l-36.37,51.27h54.45c-6.25-6.74-10.07-15.85-9.97-25.79Z"></path><path class="cls-1" d="m262.48,25.86L226.3,0c5.8,6.39,9.86,15.19,9.82,25.95-.04,9.9-3.48,19.03-9.72,25.55h72.48s0-51.27,0-51.27l-36.39,25.64Z"></path><path class="cls-1" d="m224.9,25.92c.05-14.24-10.74-25.61-24.38-25.7-13.95-.09-25.05,11.15-25.19,25.53-.14,14.04,11.08,25.69,24.78,25.74,13.8.05,24.75-11.24,24.8-25.57Z"></path></g></g></svg> 