<svg width="160" height="70" viewBox="0 0 160 70" fill="none" xmlns="http://www.w3.org/2000/svg">
<g clip-path="url(#clip0_80_2)">
<path d="M100.222 24.766L66.4961 0L50.1109 12.2521V5.81052H47.443V14.2473L0 49.7232L66.878 4.28652L100.222 24.766Z" fill="#EB602C"/>
<path d="M34.0251 50.4443C34.2876 51.0409 34.6476 51.5685 35.0955 52.0122C35.5439 52.4569 36.0751 52.8098 36.6743 53.0615C37.2749 53.3143 37.913 53.4422 38.5703 53.4422H45.1655C45.8566 53.4422 46.5138 53.3032 47.1183 53.0286C47.7135 52.759 48.2382 52.3956 48.6774 51.9487C49.1159 51.5022 49.4676 50.9775 49.7227 50.3881C49.9802 49.7925 50.1108 49.1563 50.1108 48.4977V41.9033C50.1108 41.2135 49.972 40.5565 49.6972 39.9509C49.4268 39.3543 49.0609 38.8297 48.61 38.3904C48.1604 37.9522 47.6316 37.6018 47.0387 37.3461C46.4395 37.0894 45.8094 36.9587 45.1654 36.9587H38.5702C37.8806 36.9587 37.2239 37.0977 36.6174 37.3728C36.0217 37.6423 35.4952 38.0078 35.0532 38.4578C34.6107 38.9081 34.2588 39.4334 34.0068 40.02C33.7534 40.6123 33.6249 41.2458 33.6249 41.9032V43.5636H30.6728V36.9587H27.3878V53.4422H30.6728V46.8478H33.6249V48.4976C33.6249 49.1863 33.7597 49.8409 34.0251 50.4443ZM36.9098 41.5393C36.9098 40.8238 37.4901 40.2432 38.2061 40.2432H45.5299C46.2458 40.2432 46.8263 40.8238 46.8263 41.5393V48.862C46.8263 49.5776 46.2458 50.1581 45.5299 50.1581H38.2061C37.4901 50.1581 36.9098 49.5776 36.9098 48.862V41.5393Z" fill="white"/>
<path d="M52.1604 53.442H55.4454V40.2431H65.1152V36.9585H52.1604V53.442Z" fill="white"/>
<path d="M88.1462 40.2431H94.7409V53.442H98.0255V40.2431H104.632V36.9585H88.1462V40.2431Z" fill="white"/>
<path d="M123.221 45.4594C123.475 44.9018 123.604 44.3052 123.604 43.6869V41.6021C123.588 40.9558 123.441 40.3412 123.168 39.7759C122.899 39.2172 122.541 38.7232 122.102 38.3107C121.662 37.8972 121.14 37.5645 120.548 37.3234C119.953 37.0813 119.316 36.9585 118.658 36.9585H107.117V53.442H110.401V48.3315H118.658C119.349 48.3315 120.005 48.2027 120.608 47.9486C121.204 47.6981 121.731 47.3553 122.174 46.9306C122.618 46.5069 122.969 46.012 123.221 45.4594ZM120.319 43.6869C120.319 44.13 120.161 44.4934 119.838 44.7974C119.515 45.1016 119.129 45.2496 118.658 45.2496H110.401V40.051H118.658C119.129 40.051 119.515 40.1982 119.838 40.5037C120.161 40.8068 120.319 41.1706 120.319 41.6137V43.6869Z" fill="white"/>
<path d="M141.62 41.903C141.62 41.2266 141.481 40.5779 141.206 39.9764C140.937 39.3852 140.572 38.8606 140.121 38.4192C139.673 37.9781 139.149 37.622 138.567 37.361C137.972 37.0935 137.335 36.9585 136.674 36.9585H130.079C129.406 36.9585 128.758 37.0934 128.154 37.3592C127.556 37.622 127.029 37.9792 126.587 38.4219C126.144 38.866 125.787 39.3913 125.529 39.9841C125.266 40.5841 125.135 41.2293 125.135 41.903V48.4974C125.135 49.1815 125.262 49.8342 125.515 50.4363C125.767 51.0352 126.121 51.5649 126.566 52.0102C127.012 52.4556 127.542 52.8089 128.14 53.0612C128.742 53.3141 129.394 53.442 130.079 53.442H136.674C137.35 53.442 137.996 53.3075 138.597 53.0406C139.188 52.7784 139.713 52.4234 140.155 51.9852C140.6 51.5448 140.958 51.0196 141.22 50.4228C141.485 49.8195 141.62 49.1715 141.62 48.4973V41.903ZM138.336 48.8618C138.336 49.5773 137.756 50.1579 137.039 50.1579H129.715C128.999 50.1579 128.419 49.5773 128.419 48.8618V41.5391C128.419 40.8235 128.999 40.243 129.715 40.243H137.039C137.756 40.243 138.336 40.8235 138.336 41.5391V48.8618Z" fill="white"/>
<path d="M156.715 41.9025V53.442H160V36.9585H157.016L146.799 48.301V36.9585H143.514V53.442H146.502L156.715 41.9025Z" fill="white"/>
<path d="M73.3758 40.7235C73.6992 40.3999 74.0853 40.2431 74.5562 40.2431H81.1515H85.7695H86.1157V36.9585H81.1516H74.5438C73.8573 36.974 73.2043 37.1208 72.6033 37.3932C72.0093 37.6623 71.4839 38.0229 71.042 38.4648C70.5978 38.9091 70.2448 39.4327 69.9928 40.0198C69.7394 40.6121 69.6109 41.2456 69.6109 41.903V48.4974C69.6109 49.185 69.7433 49.8391 70.0048 50.4419C70.2636 51.0397 70.6245 51.5687 71.078 52.0136C71.5295 52.4579 72.0615 52.8096 72.6604 53.0612C73.2571 53.3125 73.8909 53.4397 74.5439 53.4412L74.5564 53.442H81.1517H86.1158V50.1573H85.7943H81.1582H74.55C74.0822 50.1556 73.6981 49.9995 73.3759 49.6773C73.0527 49.354 72.8954 48.9678 72.8954 48.4973V41.9029C72.8954 41.4324 73.0523 41.0463 73.3758 40.7235Z" fill="white"/>
<path d="M153.263 31.9817H150.286V34.9584H153.263V31.9817Z" fill="white"/>
<path d="M27.3876 69.8618V62.7337H33.4954V63.7532H28.4072V69.8617L27.3876 69.8618ZM35.2239 69.8618V62.7337H40.3135C40.5851 62.7337 40.8429 62.7861 41.0888 62.8929C41.3332 62.9981 41.5473 63.1424 41.7301 63.3257C41.9118 63.5073 42.0592 63.7225 42.1732 63.972C42.2851 64.2195 42.3447 64.4875 42.3513 64.7724V65.7905C42.3513 66.0636 42.2985 66.3198 42.1953 66.5642C42.09 66.808 41.9457 67.0236 41.7625 67.2105C41.5791 67.3969 41.3619 67.5462 41.1144 67.6582C40.8649 67.7686 40.5989 67.8246 40.3135 67.8246H36.2435V69.8619L35.2239 69.8618ZM36.2435 66.8101H40.3135C40.5989 66.8101 40.8397 66.7116 41.0364 66.5149C41.2331 66.3162 41.3317 66.0755 41.3317 65.7905V64.7724C41.3317 64.4875 41.2332 64.2467 41.0364 64.0485C40.8398 63.8514 40.599 63.7532 40.3135 63.7532H36.2435V66.8101ZM44.2832 64.7725V62.7353H45.3029V64.7725C45.3029 65.0579 45.4011 65.2986 45.5982 65.4954C45.7966 65.6921 46.0377 65.7907 46.3227 65.7907H50.3927V62.7354H51.4124V67.8247C51.4124 68.0958 51.3599 68.354 51.2531 68.5998C51.1478 68.8438 51.002 69.0594 50.8187 69.2462C50.6334 69.4311 50.4182 69.5805 50.1723 69.6924C49.9243 69.8059 49.6598 69.8619 49.3748 69.8619H46.5209C46.241 69.8619 45.9813 69.8094 45.7373 69.7058C45.4929 69.6005 45.2792 69.4563 45.096 69.273C44.9128 69.0901 44.7669 68.8729 44.6581 68.6251C44.5514 68.376 44.4938 68.1096 44.4871 67.8247H45.5065C45.5065 68.1096 45.605 68.3504 45.8002 68.5471C45.9952 68.7441 46.236 68.8423 46.521 68.8423H49.3732C49.6583 68.8423 49.899 68.7442 50.0974 68.5471C50.2944 68.3505 50.3927 68.1077 50.3927 67.8247V66.8102H46.3208C46.0495 66.8102 45.7898 66.7574 45.5402 66.6506C45.2927 66.5453 45.074 66.401 44.8872 66.2182C44.7007 66.0365 44.5528 65.8209 44.4444 65.5734C44.3377 65.3239 44.2832 65.0579 44.2832 64.7725ZM53.6414 69.8619V62.7338H60.7689V69.8619H59.7491V63.7534H54.6611V69.8619H53.6414ZM63.0047 69.8619V62.7338H70.1322V69.8619H69.1125V63.7534H64.0245V69.8619H63.0047ZM72.3681 69.8619V64.771C72.3681 64.4998 72.4205 64.2416 72.5277 63.9993C72.6325 63.755 72.7768 63.5394 72.9602 63.353C73.1418 63.1646 73.357 63.0152 73.605 62.9032C73.8541 62.7897 74.1206 62.7338 74.4056 62.7338H77.4577C77.7292 62.7338 77.9871 62.7862 78.233 62.893C78.4774 62.9982 78.6915 63.1424 78.8742 63.3258C79.0559 63.5074 79.2035 63.7226 79.3173 63.9721C79.4294 64.2196 79.4888 64.486 79.4955 64.771V69.8619H78.4758V67.8246H73.3877V69.8619H72.3681ZM73.3877 66.8102H78.4758V64.7726C78.4758 64.4877 78.3773 64.2469 78.1806 64.0487C77.9839 63.8516 77.743 63.7534 77.4576 63.7534H74.4055C74.1205 63.7534 73.8796 63.8515 73.683 64.0487C73.4859 64.2469 73.3876 64.4877 73.3876 64.7726L73.3877 66.8102ZM87.0227 69.8619V62.7354H88.0424V65.7907H89.6625L92.7146 62.7354H94.1518L90.5872 66.2979L94.1518 69.8619H92.7146L89.6625 66.8103H88.0424V69.8619H87.0227ZM95.7786 67.8246V64.771C95.7786 64.4928 95.833 64.2299 95.9399 63.9839C96.0483 63.7364 96.1944 63.5209 96.3773 63.3375C96.5626 63.1543 96.7779 63.0069 97.0273 62.8982C97.2749 62.7882 97.5378 62.7339 97.8161 62.7339H100.87C101.141 62.7339 101.4 62.7883 101.642 62.8982C101.886 63.0069 102.102 63.1544 102.288 63.3375C102.477 63.5209 102.626 63.7364 102.738 63.9839C102.852 64.2298 102.908 64.4927 102.908 64.771V67.8246C102.908 68.1028 102.853 68.3657 102.743 68.6133C102.635 68.8627 102.487 69.0779 102.304 69.2596C102.12 69.4428 101.905 69.5887 101.657 69.697C101.411 69.8074 101.149 69.8618 100.87 69.8618H97.8161C97.5312 69.8618 97.2647 69.8093 97.0172 69.7057C96.7676 69.6004 96.5524 69.4562 96.3675 69.2729C96.1842 69.0881 96.04 68.8728 95.9347 68.6233C95.831 68.3758 95.7786 68.1095 95.7786 67.8246ZM96.7983 67.8226C96.7983 68.1076 96.8965 68.3488 97.0936 68.547C97.2919 68.744 97.533 68.8422 97.8181 68.8422H100.869C101.154 68.8422 101.394 68.7441 101.593 68.547C101.79 68.3488 101.888 68.1077 101.888 67.8226V64.7725C101.888 64.4876 101.79 64.2468 101.593 64.0486C101.394 63.8515 101.154 63.7533 100.869 63.7533H97.8181C97.5331 63.7533 97.2919 63.8514 97.0936 64.0486C96.8966 64.2468 96.7983 64.4876 96.7983 64.7725V67.8226ZM105.038 69.8619V62.7354H106.058L109.114 67.1443L112.166 62.7354H113.185V69.8619H112.166V64.559L109.114 68.9679L106.058 64.559V69.8619H105.038ZM115.419 69.8619V62.7338H122.547V69.8619H121.527V63.7534H116.439V69.8619H115.419ZM124.783 69.8619V64.771C124.783 64.4998 124.835 64.2416 124.942 63.9993C125.047 63.755 125.191 63.5394 125.375 63.353C125.556 63.1646 125.772 63.0152 126.02 62.9032C126.269 62.7897 126.535 62.7338 126.82 62.7338H129.872C130.144 62.7338 130.402 62.7862 130.648 62.893C130.892 62.9982 131.106 63.1424 131.289 63.3258C131.471 63.5074 131.618 63.7226 131.732 63.9721C131.844 64.2196 131.903 64.486 131.91 64.771V69.8619H130.89V67.8246H125.802V69.8619H124.783ZM125.802 66.8102H130.89V64.7726C130.89 64.4877 130.792 64.2469 130.595 64.0487C130.399 63.8516 130.158 63.7534 129.872 63.7534H126.82C126.535 63.7534 126.294 63.8515 126.097 64.0487C125.9 64.2469 125.802 64.4877 125.802 64.7726V66.8102ZM134.146 69.8619V62.7354H135.166V65.7907H140.254V62.7354H141.273V69.8619H140.254V66.8102H135.166V69.8619H134.146ZM143.509 69.8619V62.7354H144.529V68.3859L149.617 62.7354H150.637V69.8619H149.617V64.1112L144.529 69.8619H143.509ZM152.873 69.8619V62.7354H153.892V68.3859L158.98 62.7354H160V69.8619H158.98V64.1112L153.892 69.8619H152.873ZM154.403 60.7034H155.416C155.416 60.9883 155.514 61.2291 155.711 61.4258C155.909 61.6228 156.151 61.721 156.436 61.721C156.721 61.721 156.961 61.6229 157.16 61.4258C157.357 61.2292 157.455 60.9884 157.455 60.7034H158.475C158.475 60.9745 158.422 61.2327 158.316 61.475C158.21 61.7194 158.066 61.935 157.883 62.1214C157.701 62.3097 157.486 62.4572 157.236 62.5691C156.987 62.6795 156.721 62.7355 156.436 62.7355C156.158 62.7355 155.896 62.6831 155.653 62.5795C155.409 62.4742 155.195 62.3299 155.012 62.1471C154.827 61.9638 154.683 61.7483 154.574 61.5007C154.468 61.2548 154.41 60.9883 154.403 60.7034Z" fill="#EB602C"/>
</g>
<defs>
<clipPath id="clip0_80_2">
<rect width="160" height="70" fill="white"/>
</clipPath>
</defs>
</svg>
