<?xml version="1.0" encoding="utf-8"?><svg xmlns="http://www.w3.org/2000/svg" xmlns:xlink="http://www.w3.org/1999/xlink"><symbol fill="none" viewBox="0 0 24 24" id="add-plus" xmlns="http://www.w3.org/2000/svg"><path fill="#091B36" fill-rule="evenodd" d="M13 6a1 1 0 10-2 0v5H6a1 1 0 100 2h5v5a1 1 0 102 0v-5h5a1 1 0 100-2h-5V6z" clip-rule="evenodd"/></symbol><symbol fill="none" viewBox="0 0 14 14" id="arrow-top" xmlns="http://www.w3.org/2000/svg"><path d="M2.916 9.042L7 4.958l4.083 4.084" stroke="currentColor" stroke-linecap="round" stroke-linejoin="round" stroke-width="1.5"/></symbol><symbol fill="none" viewBox="0 0 16 16" id="attention" xmlns="http://www.w3.org/2000/svg"><circle cx="8" cy="8" r="7.5" stroke="currentColor"/><path d="M7.63 11.225h0l.006.005c.1.093.223.139.364.139a.5.5 0 00.367-.141h0l.002-.003a.517.517 0 00.139-.364V7.3a.5.5 0 00-.141-.367.5.5 0 00-.367-.14.517.517 0 00-.364.139h0l-.003.002a.5.5 0 00-.141.367v3.56c0 .14.045.264.139.364zm-.078-5.522h0l.004.004a.63.63 0 00.883-.002.615.615 0 000-.885.614.614 0 00-.885 0 .601.601 0 00-.181.438c0 .17.06.32.18.445z" fill="currentColor" stroke="currentColor" stroke-width=".2"/></symbol><symbol viewBox="0 0 471.04 471.04" id="camera" xmlns="http://www.w3.org/2000/svg"><path d="M414.72 112.64h-49.152l-27.136-40.96c-10.24-15.36-28.16-24.576-46.592-24.576H179.2c-18.432 0-36.352 9.216-46.592 24.576l-27.136 40.96H56.32A56.158 56.158 0 000 168.96v198.656a56.158 56.158 0 0056.32 56.32h358.4a56.158 56.158 0 0056.32-56.32V168.96a56.158 56.158 0 00-56.32-56.32zm-179.2 265.216c-70.144 0-126.976-56.832-126.976-126.976s56.832-126.464 126.976-126.464 126.976 56.832 126.976 126.976c0 69.632-56.832 126.464-126.976 126.464zM407.552 192h-22.528c-9.216-.512-16.384-8.192-15.872-17.408.512-8.704 7.168-15.36 15.872-15.872h20.48c9.216-.512 16.896 6.656 17.408 15.872.512 9.216-6.144 16.896-15.36 17.408z" data-original="#000000"/><path d="M235.52 180.736c-38.912 0-70.656 31.744-70.656 70.656s31.744 70.144 70.656 70.144 70.656-31.744 70.656-70.656c0-38.912-31.744-70.144-70.656-70.144z" data-original="#000000"/></symbol><symbol fill="none" viewBox="0 0 20 20" id="car-front" xmlns="http://www.w3.org/2000/svg"><path fill-rule="evenodd" clip-rule="evenodd" d="M16.667 15.417v-4.179c0-.297-.05-.585-.14-.854l-1.17-4.442a2.133 2.133 0 00-1.829-1.577c-1.203-.133-1.824-.198-3.528-.198s-2.325.066-3.528.198a2.133 2.133 0 00-1.83 1.577l-1.17 4.441c-.089.27-.139.559-.139.855v4.179a.417.417 0 00.417.416h1.758a.416.416 0 00.404-.316l.338-1.35h7.5l.337 1.35a.416.416 0 00.405.316h1.759a.417.417 0 00.416-.416zm-3.5-10c.52.075.977.441 1.114.961L15 8.917c-.265-.141-.855-.272-1.168-.315A24.022 24.022 0 0010 8.333c-1.65 0-2.547.09-3.83.269-.313.043-.905.174-1.17.315l.718-2.539c.137-.52.595-.886 1.115-.961 1.17-.168 1.492-.194 3.167-.194 1.676 0 1.996.026 3.167.194zm1.416 7.083a1.25 1.25 0 100-2.5 1.25 1.25 0 000 2.5zm-7.916-1.25a1.25 1.25 0 11-2.5 0 1.25 1.25 0 012.5 0z" fill="currentColor"/><path d="M17.917 7.5a.417.417 0 01.416.417v.34a.834.834 0 01-.738.827l-.357.042a.417.417 0 01-.451-.313l-.199-.796a.417.417 0 01.404-.517h.925zm-15.834 0a.417.417 0 00-.416.417v.34a.833.833 0 00.738.827l.357.042a.417.417 0 00.451-.313l.2-.796a.417.417 0 00-.405-.517h-.925z" fill="currentColor"/></symbol><symbol fill="none" viewBox="0 0 12 9" id="check" xmlns="http://www.w3.org/2000/svg"><path d="M11.824.27a.6.6 0 00-.848 0L3.787 7.457 1.024 4.695a.6.6 0 00-.848.848l3.187 3.188a.6.6 0 00.849 0l7.612-7.613a.6.6 0 000-.849z" fill="currentColor"/></symbol><symbol fill="none" viewBox="0 0 14 14" id="chevron-down" xmlns="http://www.w3.org/2000/svg"><path d="M11.083 5.6L6.999 9.685 2.916 5.6" stroke="currentColor" stroke-width="1.5" stroke-linecap="round" stroke-linejoin="round"/></symbol><symbol fill="none" viewBox="0 0 20 20" id="chevron-left" xmlns="http://www.w3.org/2000/svg"><path d="M12.917 15.833L7.083 10l5.834-5.833" stroke="currentColor" stroke-width="1.2" stroke-linecap="round" stroke-linejoin="round"/></symbol><symbol fill="none" viewBox="0 0 20 20" id="chevron-right" xmlns="http://www.w3.org/2000/svg"><path d="M7.083 4.167L12.917 10l-5.834 5.833" stroke="currentColor" stroke-width="1.2" stroke-linecap="round" stroke-linejoin="round"/></symbol><symbol fill="none" viewBox="0 0 14 14" id="chevron-up" xmlns="http://www.w3.org/2000/svg"><path d="M2.916 8.186L7 4.102l4.083 4.084" stroke="currentColor" stroke-width="1.5" stroke-linecap="round" stroke-linejoin="round"/></symbol><symbol fill="none" viewBox="0 0 60 60" id="circle-checkbox" xmlns="http://www.w3.org/2000/svg"><path d="M27.143 42.018L12.411 27.303l2.036-2.035 12.696 12.714 29.839-29.84L59 10.16 27.143 42.018z" fill="currentColor"/><path d="M30 60C13.465 60 0 46.535 0 30S13.464 0 30 0a30.052 30.052 0 0119.018 6.804l-1.803 2.214A27.183 27.183 0 0030 2.857C15.036 2.857 2.857 15.036 2.857 30S15.036 57.143 30 57.143 57.143 44.964 57.143 30a27.02 27.02 0 00-1.607-9.214l2.678-.965A29.897 29.897 0 0159.983 30C60 46.535 46.535 60 30 60z" fill="currentColor"/></symbol><symbol fill="none" viewBox="0 0 20 20" id="clock" xmlns="http://www.w3.org/2000/svg"><path clip-rule="evenodd" d="M17.708 10A7.708 7.708 0 0110 17.71 7.708 7.708 0 012.292 10 7.708 7.708 0 0110 2.292 7.708 7.708 0 0117.708 10z" stroke="currentColor" stroke-width="1.2" stroke-linecap="round" stroke-linejoin="round"/><path d="M12.86 12.452l-3.142-1.874V6.54" stroke="currentColor" stroke-width="1.2" stroke-linecap="round" stroke-linejoin="round"/></symbol><symbol fill="none" viewBox="0 0 16 16" id="cube" xmlns="http://www.w3.org/2000/svg"><g clip-path="url(#amclip0)" fill="#0D0D0D"><path d="M8 7.591l6.576-3.795L8 0 1.425 3.796 8 7.591zm-.47.815L.954 4.612v7.592L7.53 16V8.406zm.94 0V16l6.576-3.796V4.612L8.471 8.406z"/></g><defs><clipPath id="amclip0"><path fill="currentColor" d="M0 0h16v16H0z"/></clipPath></defs></symbol><symbol fill="none" viewBox="0 0 18 18" id="direction-arrow" xmlns="http://www.w3.org/2000/svg"><path d="M14.163 9H3.836m5.571-4.736L14.164 9l-4.757 4.736" stroke="currentColor" stroke-width="1.4" stroke-linecap="round" stroke-linejoin="round"/></symbol><symbol fill="none" viewBox="0 0 32 32" id="facebook-link" xmlns="http://www.w3.org/2000/svg"><path fill-rule="evenodd" clip-rule="evenodd" d="M16 0C7.163 0 0 7.163 0 16s7.163 16 16 16 16-7.163 16-16S24.837 0 16 0zm1.668 16.703v8.705h-3.602v-8.705h-1.8v-3h1.8v-1.8C14.066 9.454 15.082 8 17.969 8h2.403v3H18.87c-1.124 0-1.198.42-1.198 1.202l-.004 1.501h2.72l-.318 3h-2.402z" fill="#CAA467"/></symbol><symbol fill="none" viewBox="0 0 14 18" id="flash" xmlns="http://www.w3.org/2000/svg"><path d="M10.965 7.39a.282.282 0 00-.098-.108.251.251 0 00-.135-.04H7.218l.59-4.917a.317.317 0 00-.041-.188.276.276 0 00-.138-.12.248.248 0 00-.177-.001.275.275 0 00-.14.118L3.04 10.312a.313.313 0 00-.006.296.283.283 0 00.098.11.25.25 0 00.136.04H6.73l-.466 4.925a.316.316 0 00.044.185.274.274 0 00.14.117.25.25 0 00.175-.002.276.276 0 00.137-.12l4.203-8.177a.314.314 0 00.003-.295z" fill="currentColor"/></symbol><symbol fill="none" viewBox="0 0 19 16" id="gallery" xmlns="http://www.w3.org/2000/svg"><path d="M16.945 8.028l-3.334-2.36-4.143 3.627a.601.601 0 01-.791 0l-1.875-1.64-3.318 2.606v1.747c0 .25.204.455.455.455H16.49a.455.455 0 00.455-.455v-3.98zM9.598 4.062a.526.526 0 10-1.052.001.526.526 0 001.052 0zm7.347-2.32a.455.455 0 00-.455-.455H3.94a.455.455 0 00-.456.455v6.992l2.967-2.33.09-.06a.601.601 0 01.677.08l1.854 1.622 4.105-3.59.083-.061a.6.6 0 01.659.022l3.026 2.142V1.742zm-6.148 2.32a1.724 1.724 0 11-3.449.001 1.724 1.724 0 013.449 0zM1.199 14.258c0 .25.204.455.455.455h12.551a.455.455 0 00.455-.455v-.596H3.94c-.914 0-1.655-.74-1.655-1.654v-8.47h-.63a.455.455 0 00-.456.454v10.266zm16.945-2.25c0 .914-.74 1.654-1.654 1.654h-.63v.596c0 .914-.741 1.654-1.655 1.654H1.655C.74 15.912 0 15.172 0 14.258V3.992c0-.914.74-1.654 1.654-1.654h.631v-.596c0-.914.74-1.654 1.654-1.654H16.49c.914 0 1.655.74 1.655 1.654v10.266z" fill="#fff"/></symbol><symbol fill="none" viewBox="0 0 32 32" id="instagram-link" xmlns="http://www.w3.org/2000/svg"><path fill-rule="evenodd" clip-rule="evenodd" d="M16 0C7.163 0 0 7.163 0 16s7.163 16 16 16 16-7.163 16-16S24.837 0 16 0zm-3.518 7.518c.91-.041 1.202-.051 3.52-.051h-.004c2.319 0 2.608.01 3.519.051.908.042 1.529.186 2.073.397a4.153 4.153 0 011.51.984c.475.474.767.95.986 1.511.21.543.353 1.163.396 2.072.04.91.052 1.2.052 3.518 0 2.318-.011 2.608-.052 3.518-.043.908-.187 1.528-.396 2.071a4.189 4.189 0 01-.985 1.512 4.19 4.19 0 01-1.51.985c-.544.21-1.165.354-2.073.396-.91.041-1.2.052-3.518.052-2.317 0-2.608-.01-3.518-.052-.909-.042-1.529-.185-2.072-.396A4.179 4.179 0 018.9 23.1a4.181 4.181 0 01-.985-1.512c-.21-.543-.355-1.163-.397-2.071-.04-.91-.051-1.2-.051-3.518 0-2.317.01-2.608.051-3.519.041-.908.185-1.528.397-2.07.218-.562.51-1.038.985-1.512a4.17 4.17 0 011.511-.984c.543-.211 1.163-.355 2.071-.397z" fill="#CAA467"/><path fill-rule="evenodd" clip-rule="evenodd" d="M15.235 9.004h.766c2.278 0 2.548.008 3.448.05.832.037 1.284.176 1.584.293.399.155.682.34.981.638.299.299.483.583.639.982.116.3.256.752.293 1.584.041.9.05 1.17.05 3.447s-.009 2.547-.05 3.447c-.038.832-.177 1.284-.293 1.584a2.64 2.64 0 01-.639.98 2.638 2.638 0 01-.98.638c-.301.118-.753.256-1.585.295-.9.04-1.17.05-3.448.05-2.279 0-2.549-.01-3.449-.05-.832-.039-1.283-.178-1.584-.295a2.643 2.643 0 01-.981-.638 2.644 2.644 0 01-.639-.98c-.117-.301-.256-.753-.294-1.585-.04-.9-.049-1.17-.049-3.448 0-2.28.008-2.548.05-3.447.037-.832.176-1.284.293-1.585a2.64 2.64 0 01.639-.981 2.64 2.64 0 01.981-.639c.3-.117.752-.256 1.585-.294.787-.036 1.092-.046 2.682-.048v.002zm5.321 1.417a1.024 1.024 0 100 2.048 1.024 1.024 0 000-2.048zM11.618 16a4.383 4.383 0 118.766 0 4.383 4.383 0 01-8.766 0z" fill="#CAA467"/><path d="M16 13.155a2.844 2.844 0 110 5.69 2.844 2.844 0 010-5.69z" fill="#CAA467"/></symbol><symbol fill="none" viewBox="0 0 20 20" id="like" xmlns="http://www.w3.org/2000/svg"><path clip-rule="evenodd" d="M2.9 9.688c-.834-2.606.141-5.584 2.877-6.465A4.672 4.672 0 0110 3.932c1.132-.875 2.778-1.17 4.215-.71 2.736.882 3.717 3.86 2.884 6.466-1.3 4.13-7.1 7.31-7.1 7.31S4.244 13.867 2.9 9.689z" stroke="currentColor" stroke-width="1.2" stroke-linecap="round" stroke-linejoin="round"/><path d="M13.111 5.878a2.163 2.163 0 011.491 1.884" stroke="currentColor" stroke-width="1.2" stroke-linecap="round" stroke-linejoin="round"/></symbol><symbol fill="none" viewBox="0 0 24 24" id="location" xmlns="http://www.w3.org/2000/svg"><path fill-rule="evenodd" clip-rule="evenodd" d="M8.532 3.937a6.89 6.89 0 017.034.058C17.71 5.327 19.012 7.705 19 10.26c-.05 2.54-1.447 4.929-3.193 6.775a18.727 18.727 0 01-3.358 2.82 1.174 1.174 0 01-.408.144.82.82 0 01-.39-.119 18.514 18.514 0 01-4.839-4.547A9.28 9.28 0 015 10.134c-.001-2.562 1.347-4.928 3.532-6.197zm1.262 7.258a2.378 2.378 0 002.198 1.497 2.339 2.339 0 001.683-.701c.446-.454.696-1.07.694-1.713a2.423 2.423 0 00-1.462-2.243 2.346 2.346 0 00-2.594.52 2.455 2.455 0 00-.519 2.64z" fill="currentColor"/></symbol><symbol fill="none" viewBox="0 0 24 25" id="location-border" xmlns="http://www.w3.org/2000/svg"><path clip-rule="evenodd" d="M14.5 10.956a2.5 2.5 0 10-5-.002 2.5 2.5 0 005 .002z" stroke="currentColor" stroke-width="1.5" stroke-linecap="round" stroke-linejoin="round"/><path clip-rule="evenodd" d="M12 21.455c-1.199 0-7.5-5.101-7.5-10.437 0-4.176 3.357-7.563 7.5-7.563 4.142 0 7.5 3.387 7.5 7.563 0 5.335-6.302 10.437-7.5 10.437z" stroke="currentColor" stroke-width="1.5" stroke-linecap="round" stroke-linejoin="round"/></symbol><symbol fill="none" viewBox="0 0 14 14" id="location-direction" xmlns="http://www.w3.org/2000/svg"><path d="M13.25 1L7.353 13.25 6.346 7.903 1 6.899 13.25 1z" fill="#091B36"/></symbol><symbol fill="none" viewBox="0 0 17 16" id="lock" xmlns="http://www.w3.org/2000/svg"><path fill-rule="evenodd" clip-rule="evenodd" d="M7.441 9.349h1.2v2.646h-1.2V9.35zm-4.115 4.105V7.921h9.43v5.533h-9.43zm-1.2-6.033a.7.7 0 01.7-.7h10.43a.7.7 0 01.7.7v6.533a.7.7 0 01-.7.7H2.827a.7.7 0 01-.7-.7V7.421zm2.539-1.793v1.093h-1.2V5.628c0-2.413 2.049-4.37 4.576-4.37 2.528 0 4.577 1.957 4.577 4.37v1.093h-1.2V5.628c0-1.699-1.459-3.17-3.377-3.17-1.917 0-3.376 1.471-3.376 3.17z" fill="currentColor"/></symbol><symbol fill="none" viewBox="0 0 209 67" id="logo" xmlns="http://www.w3.org/2000/svg"><path d="M103.665 42.552h-7.446a2.197 2.197 0 01-1.544-.633 2.162 2.162 0 01-.64-1.53V9.442a2.56 2.56 0 01.41-1.291 3.719 3.719 0 011.712-1.461l7.269-3.22a.178.178 0 01.166.013.17.17 0 01.079.145v38.924h-.006zm8.128 0h-7.042a.39.39 0 01-.359-.24.394.394 0 01-.029-.147V3.617a.385.385 0 01.236-.357l7.143-3.04a2.775 2.775 0 012.481.157.38.38 0 01.194.33v39.248c0 .69-.277 1.352-.769 1.84a2.633 2.633 0 01-1.855.762v-.005zm10.637 3.446h-4.914a.252.252 0 01-.184-.047.246.246 0 01-.097-.162V25.748a.217.217 0 01.051-.122.215.215 0 01.114-.067l4.988-2.444a2.427 2.427 0 011.732.083.204.204 0 01.132.178v21.208c0 .774-.82 1.391-1.83 1.391l.008.023zm-35.193 0h3.93a.217.217 0 00.218-.209V25.172a.207.207 0 00-.132-.192l-4.005-1.857a1.6 1.6 0 00-1.403.084.206.206 0 00-.11.178v21.207c.012.377.173.735.448.995s.643.403 1.023.397l.03.014z" fill="currentColor"/><path d="M91.629 45.998h-4.932s1.174-.557 2.9-2.84c2.189-2.883 2.666-5.04 2.686-6.855.067-6.402 0-25.55 0-25.55 0-.206.082-.404.23-.55a.789.789 0 01.555-.229v34.593c0 .38-.151.743-.421 1.01-.27.269-.636.42-1.018.42zm23.915-44.385v42.954c0 .38.152.743.422 1.01.27.269.636.42 1.018.42h4.932s-1.536-.21-3.629-2.148c-2.094-1.937-1.937-5.731-1.965-7.546-.062-5.951 0-30.237 0-33.538a.901.901 0 00-.281-.638l-.519-.514h.022zM84.017 45.998H81s1.052.017 2.276-1.214c1.336-1.341 1.123-3.565 1.142-4.668.043-3.871 0-15.492 0-15.492a.472.472 0 01.3-.438.483.483 0 01.183-.036v20.98a.87.87 0 01-.26.615.886.886 0 01-.624.253zm41.952 0H129s-1.052.017-2.279-1.214c-1.333-1.341-1.122-3.565-1.142-4.668-.039-3.871 0-15.492 0-15.492a.464.464 0 00-.296-.438.485.485 0 00-.184-.036v20.98a.867.867 0 00.545.803.884.884 0 00.336.065h-.011zM198.911 53.667h-4.325V67h4.325v-2.343l5.405-3.783V67H209V53.667h-4.684v2.522l-4.685 3.243h-.72v-5.765zm5.044-2.162h-4.324v-2.883l4.324-1.802v4.685z" fill="currentColor"/><path fill-rule="evenodd" clip-rule="evenodd" d="M0 63.036h2.162l1.441-9.369h11.531v9.37h2.163V67H0v-3.964zm6.486 0l.72-5.765h3.965v5.765H6.486zm11.891-9.369h14.054V67H18.377V53.667zm4.685 3.964h4.684v5.405h-4.684v-5.405zm155.668-3.964h14.054V67H178.73V53.667zm4.685 3.964h4.684v5.405h-4.684v-5.405z" fill="currentColor"/><path d="M38.557 53.667h-4.684V67h4.684v-4.324h5.045V67h4.684V53.667h-4.684v5.405h-5.045v-5.405zm15.855 0h-4.684V67h4.684v-4.324h5.045V67h4.684V53.667h-4.684v5.405h-5.045v-5.405zm24.864 0H65.582V67h13.694v-5.045H74.95v1.441h-4.684v-1.441h3.603v-3.243h-3.603V57.27h4.684v1.44h4.325v-5.044zm51.169 0h-13.693V67h13.693v-5.045h-4.324v1.441h-4.685v-1.441h3.604v-3.243h-3.604V57.27h4.685v1.44h4.324v-5.044zm12.252 5.045h4.324v-5.045h-12.252l-3.243 6.666L134.769 67h12.252v-5.405h-4.324v1.801h-4.685l-1.441-3.063 1.441-3.062h4.685v1.44z" fill="currentColor"/><path fill-rule="evenodd" clip-rule="evenodd" d="M83.24 53.667l-3.243 6.666L83.24 67h14.774l3.243-6.666-3.243-6.667H83.24zm3.243 3.604h1.801v6.125h-1.801l-1.442-3.243 1.442-2.882zm6.486 0h1.802l1.441 2.882-1.441 3.243h-1.802v-6.125z" fill="currentColor"/><path d="M101.617 57.27v-3.603h13.693v3.604h-4.684V67h-4.324v-9.73h-4.685zm46.845 0v-3.603h13.693v3.604h-4.684V67h-4.325v-9.73h-4.684z" fill="currentColor"/><path fill-rule="evenodd" clip-rule="evenodd" d="M163.236 53.667h11.171l3.243 6.126v3.603h-9.73V67h-4.684V53.667zm4.684 3.964v2.162h4.685l-1.081-2.162h-3.604z" fill="currentColor"/></symbol><symbol fill="none" viewBox="0 0 209 78" id="logo-newyear" xmlns="http://www.w3.org/2000/svg"><path fill="currentcolor" d="M103.664 53.095h-7.446a2.198 2.198 0 01-1.544-.633 2.163 2.163 0 01-.64-1.53V19.985a2.56 2.56 0 01.41-1.29 3.718 3.718 0 011.712-1.462l7.269-3.22a.179.179 0 01.166.013.168.168 0 01.079.145v38.924h-.006zm8.128 0h-7.042a.387.387 0 01-.388-.387V14.16a.388.388 0 01.236-.357l7.143-3.04a2.778 2.778 0 012.481.157.378.378 0 01.194.33v39.248c0 .69-.277 1.352-.769 1.84a2.633 2.633 0 01-1.855.762v-.005zm10.637 3.446h-4.914a.253.253 0 01-.184-.047.246.246 0 01-.097-.162v-20.04a.22.22 0 01.051-.123.215.215 0 01.114-.067l4.988-2.444a2.427 2.427 0 011.732.083.202.202 0 01.132.178v21.208c0 .774-.82 1.391-1.83 1.391l.008.023zm-35.193 0h3.93a.217.217 0 00.218-.209V35.715a.208.208 0 00-.132-.192l-4.005-1.857a1.6 1.6 0 00-1.403.084.205.205 0 00-.11.178v21.207c.012.377.173.735.448.995s.643.403 1.023.397l.031.014z"/><path fill="currentcolor" d="M91.629 56.541h-4.932s1.174-.557 2.9-2.84c2.189-2.883 2.666-5.04 2.686-6.855.067-6.402 0-25.55 0-25.55 0-.206.082-.404.23-.55a.789.789 0 01.555-.229V55.11a1.439 1.439 0 01-1.439 1.431zm23.915-44.385V55.11a1.438 1.438 0 001.44 1.43h4.932s-1.536-.21-3.629-2.148c-2.094-1.937-1.937-5.73-1.965-7.546-.062-5.95 0-30.237 0-33.538a.903.903 0 00-.281-.638l-.519-.514h.022zM84.017 56.541H81s1.052.017 2.276-1.214c1.336-1.34 1.123-3.565 1.142-4.668.043-3.87 0-15.492 0-15.492a.472.472 0 01.3-.438.484.484 0 01.183-.036v20.98a.869.869 0 01-.26.615.886.886 0 01-.624.253zm41.952 0H129s-1.052.017-2.279-1.214c-1.333-1.34-1.122-3.565-1.142-4.668-.039-3.87 0-15.492 0-15.492a.464.464 0 00-.296-.438.486.486 0 00-.184-.036v20.98a.865.865 0 00.545.803.885.885 0 00.336.065h-.011zm72.941 7.669h-4.324v13.333h4.324V75.2l5.405-3.783v6.126H209V64.21h-4.685v2.522l-4.684 3.243h-.721V64.21zm5.045-2.162h-4.324v-2.883l4.324-1.802v4.685z"/><path fill="currentcolor" fill-rule="evenodd" d="M0 73.58h2.162l1.441-9.37h11.531v9.37h2.163v3.964H0V73.58zm6.486 0l.72-5.765h3.965v5.765H6.486zm11.891-9.37h14.054v13.334H18.377V64.21zm4.685 3.965h4.684v5.405h-4.684v-5.405zM178.73 64.21h14.054v13.333H178.73V64.21zm4.685 3.964h4.684v5.405h-4.684v-5.405z" clip-rule="evenodd"/><path fill="currentcolor" d="M38.555 64.208h-4.684v13.333h4.684v-4.324H43.6v4.324h4.684V64.208H43.6v5.405h-5.045v-5.405zm15.855 0h-4.684v13.333h4.684v-4.324h5.045v4.324h4.685V64.208h-4.685v5.405H54.41v-5.405zm24.864 0H65.581v13.333h13.693v-5.045H74.95v1.441h-4.685v-1.441h3.604v-3.243h-3.604v-1.442h4.685v1.44h4.324v-5.043zm51.169 0H116.75v13.333h13.693v-5.045h-4.324v1.441h-4.685v-1.441h3.604v-3.243h-3.604v-1.442h4.685v1.44h4.324v-5.043zm12.252 5.045h4.324v-5.045h-12.252l-3.243 6.666 3.243 6.667h12.252v-5.405h-4.324v1.801h-4.685l-1.441-3.063 1.441-3.062h4.685v1.441z"/><path fill="currentcolor" fill-rule="evenodd" d="M83.24 64.21l-3.244 6.667 3.243 6.667h14.774l3.243-6.666-3.243-6.667H83.24zm3.242 3.605h1.801v6.125h-1.8l-1.443-3.243 1.442-2.882zm6.486 0h1.802l1.441 2.882-1.44 3.243h-1.803v-6.125z" clip-rule="evenodd"/><path fill="currentcolor" d="M101.617 67.814V64.21h13.694v3.604h-4.685v9.729h-4.324v-9.73h-4.685zm46.845 0V64.21h13.693v3.604h-4.684v9.729h-4.325v-9.73h-4.684z"/><path fill="currentcolor" fill-rule="evenodd" d="M163.234 64.21h11.171l3.243 6.127v3.603h-9.73v3.604h-4.684V64.21zm4.684 3.965v2.162h4.685l-1.081-2.162h-3.604z" clip-rule="evenodd"/><path fill="#EB2335" d="M95.109 16.215c3.076-.601 8.377.397 11.774 1.561 3.785 1.298 7.921 3.184 10.184 5.766 0 0 1.077-.876 1.732-3.594.438-1.805.628-4.27 1.771-4.956 3.697-2.229 3.747 6.062 3.747 6.062l1.993-.185s1.665-13.07-7.578-18.23c-10.876-6.073-23.39 3.274-23.623 13.576z"/><path fill="#C22026" d="M124.808 20.995l-.493.046s-.043-8.287-3.746-6.06c-1.144.685-1.335 3.156-1.771 4.954-.656 2.718-1.732 3.593-1.732 3.593a10.789 10.789 0 00-1.126-1.103c.637-.594 1.382-1.8 1.868-3.678.759-2.94 1.638-5.927 4.549-5.479 2.731.435 2.531 6.37 2.451 7.727zm-6.079-18.358c-14.394-4.96-23.621 13.58-23.621 13.58.234-10.306 12.747-19.651 23.621-13.58z"/><path fill="#E9FCFF" d="M118.35 23.104c-.264.796-1.115 1.24-1.899.986a1.391 1.391 0 01-.514-.289c-2.298-1.959-5.902-3.746-9.782-5.178-3.956-1.46-7.167-1.939-9.906-1.567a1.481 1.481 0 01-1.685-1.292 1.716 1.716 0 01.01-.47 17.326 17.326 0 011.36-4.189 4.125 4.125 0 012.926-2.292c2.32-.442 5.342-.709 10.524 1.174 4.924 1.793 8.111 4.32 9.326 6.16.603.907.817 2.024.593 3.11-.114.592-.759 3.248-.953 3.847z"/><path fill="#AEE7ED" fill-opacity=".314" d="M118.461 22.761c-.041.147-.074.267-.103.345-.263.797-1.115 1.24-1.899.986a1.39 1.39 0 01-.514-.289c-2.299-1.96-5.897-3.747-9.784-5.181-3.958-1.461-7.17-1.94-9.916-1.57a1.48 1.48 0 01-1.687-1.285 1.56 1.56 0 01.012-.477c.28-1.444.735-2.855 1.367-4.19a4.114 4.114 0 012.924-2.287c.5-.094 1.035-.187 1.617-.245 0 0-2.922 3.04-2.391 5.233.39 1.603 3.505.285 9.786 2.724 3.851 1.489 8.204 3.867 10.588 6.236z"/><path fill="#E9FCFF" d="M124.725 25.677c1.634.44 3.33-.545 3.789-2.198.459-1.653-.493-3.35-2.126-3.789-1.634-.44-3.33.545-3.789 2.198-.46 1.653.493 3.35 2.126 3.789z"/><path fill="#AEE7ED" d="M128.444 23.732c-.59 1.615-2.357 2.462-3.952 1.897-1.593-.572-2.408-2.344-1.825-3.96a.184.184 0 01.023-.058c.034-.098.073-.188.119-.276-.403 1.53.934 2.97 2.002 3.321 1.183.397 3.023.206 3.727-1.213-.027.1-.06.19-.094.289z"/></symbol><symbol fill="none" viewBox="0 0 20 20" id="map-sheet" xmlns="http://www.w3.org/2000/svg"><path d="M12.5 5l5-2.5V15l-5 2.5V5zM7.5 15l5 2.5V5l-5-2.5V15zM2.5 5l5-2.5V15l-5 2.5V5z" stroke="#fff" stroke-width="1.1" stroke-linecap="round" stroke-linejoin="round"/></symbol><symbol fill="none" viewBox="0 0 16 16" id="max" xmlns="http://www.w3.org/2000/svg"><path fill-rule="evenodd" clip-rule="evenodd" d="M8.172 15.954c-1.57 0-2.3-.23-3.568-1.15-.803 1.035-3.343 1.845-3.454.46 0-1.04-.23-1.919-.49-2.878C.352 11.204 0 9.888 0 7.98 0 3.426 3.721 0 8.13 0 12.542 0 16 3.595 16 8.023a7.922 7.922 0 01-2.28 5.592 7.853 7.853 0 01-5.548 2.34zm.065-12.017c-2.147-.111-3.82 1.381-4.191 3.722-.306 1.937.237 4.297.699 4.42.222.054.78-.4 1.127-.748a3.962 3.962 0 001.94.694 4.077 4.077 0 002.917-1.035 4.112 4.112 0 001.359-2.79 4.116 4.116 0 00-1.059-2.92 4.08 4.08 0 00-2.792-1.34v-.003z" fill="currentColor"/></symbol><symbol fill="none" viewBox="0 0 32 32" id="max-fill" xmlns="http://www.w3.org/2000/svg"><path fill-rule="evenodd" clip-rule="evenodd" d="M16.344 31.909c-3.14 0-4.6-.46-7.137-2.302-1.604 2.072-6.686 3.69-6.907.92 0-2.08-.459-3.837-.978-5.755C.703 22.408 0 19.776 0 15.962 0 6.852 7.442 0 16.26 0 25.085 0 32 7.19 32 16.046a15.844 15.844 0 01-4.562 11.184 15.707 15.707 0 01-11.094 4.679zm.13-24.035c-4.294-.223-7.641 2.762-8.382 7.443-.612 3.876.473 8.595 1.398 8.84.443.108 1.559-.797 2.254-1.495a7.925 7.925 0 003.882 1.389 8.154 8.154 0 005.831-2.071 8.225 8.225 0 002.719-5.58 8.233 8.233 0 00-2.117-5.841 8.162 8.162 0 00-5.585-2.678v-.007z" fill="currentColor"/></symbol><symbol fill="none" viewBox="0 0 32 32" id="max-link" xmlns="http://www.w3.org/2000/svg"><path d="M16 0c8.837 0 16 7.163 16 16s-7.163 16-16 16S0 24.837 0 16 7.163 0 16 0zm.162 6C10.652 6 6 10.284 6 15.977c0 2.383.44 4.028.826 5.505.325 1.2.612 2.298.612 3.598.139 1.73 3.314.719 4.317-.576 1.585 1.15 2.497 1.44 4.46 1.44a9.818 9.818 0 006.934-2.925A9.903 9.903 0 0026 16.029C26 10.494 21.678 6 16.162 6zm.134 4.92v.006a5.103 5.103 0 013.491 1.674 5.146 5.146 0 011.322 3.65 5.14 5.14 0 01-1.698 3.487 5.098 5.098 0 01-3.645 1.294 4.953 4.953 0 01-2.426-.868c-.434.436-1.131 1.002-1.408.936-.578-.154-1.256-3.104-.874-5.526.463-2.925 2.554-4.791 5.238-4.652z" fill="#CAA467"/></symbol><symbol fill="none" viewBox="0 0 32 16" id="move-icon" xmlns="http://www.w3.org/2000/svg"><path d="M21.667 3.333L26.334 8l-4.667 4.667m-11.334 0L5.666 8l4.667-4.667" stroke="currentColor" stroke-width="1.5" stroke-linecap="round" stroke-linejoin="round"/></symbol><symbol fill="none" viewBox="0 0 32 32" id="ok-link" xmlns="http://www.w3.org/2000/svg"><path fill-rule="evenodd" clip-rule="evenodd" d="M0 16C0 7.163 7.163 0 16 0s16 7.163 16 16-7.163 16-16 16S0 24.837 0 16zm15.989.257c2.36 0 4.277-1.852 4.277-4.128C20.266 9.852 18.348 8 15.99 8s-4.277 1.852-4.277 4.13c0 2.275 1.918 4.127 4.277 4.127zm4.225 2.377a8.176 8.176 0 01-2.484.993l2.392 2.308a1.18 1.18 0 010 1.71 1.284 1.284 0 01-1.772 0L16 21.378l-2.35 2.269a1.275 1.275 0 01-.886.354c-.32 0-.641-.118-.886-.354a1.18 1.18 0 010-1.71l2.39-2.31a8.189 8.189 0 01-2.483-.992 1.185 1.185 0 01-.392-1.668 1.278 1.278 0 011.727-.38 5.596 5.596 0 005.759 0 1.279 1.279 0 011.728.38 1.185 1.185 0 01-.393 1.668z" fill="#CAA467"/><path d="M15.989 10.42c.976 0 1.77.767 1.77 1.71 0 .941-.794 1.708-1.77 1.708s-1.771-.767-1.771-1.709c0-.942.795-1.71 1.77-1.71z" fill="#CAA467"/></symbol><symbol fill="none" viewBox="0 0 20 20" id="open-link" xmlns="http://www.w3.org/2000/svg"><path fill-rule="evenodd" clip-rule="evenodd" d="M16.885 2.266h-4.802v-1.2h6.85v6.85h-1.2V3.115L11.258 9.59l-.849-.849 6.476-6.476zM2.667 3.933a.4.4 0 00-.4.4v13a.4.4 0 00.4.4h13a.4.4 0 00.4-.4v-5.667h1.2v5.667a1.6 1.6 0 01-1.6 1.6h-13a1.6 1.6 0 01-1.6-1.6v-13a1.6 1.6 0 011.6-1.6h5.666v1.2H2.667z" fill="currentColor"/></symbol><symbol fill="none" viewBox="0 0 24 24" id="params" xmlns="http://www.w3.org/2000/svg"><g stroke="#fff" stroke-width="1.1" stroke-linecap="round" stroke-linejoin="round"><path d="M14 16H6M11 8.5h8"/><path clip-rule="evenodd" d="M10.726 8.346A2.355 2.355 0 008.363 6 2.355 2.355 0 006 8.346a2.355 2.355 0 002.363 2.347 2.355 2.355 0 002.363-2.347zM18.726 15.846a2.354 2.354 0 00-2.362-2.346A2.355 2.355 0 0014 15.846a2.355 2.355 0 002.364 2.346 2.354 2.354 0 002.362-2.346z"/></g></symbol><symbol fill="none" viewBox="0 0 20 20" id="person" xmlns="http://www.w3.org/2000/svg"><path d="M11.667 3.75a1.25 1.25 0 11-2.5 0 1.25 1.25 0 012.5 0zm.696 8.86a.55.55 0 01.092.182l1.166 3.945a.596.596 0 01-.43.74.633.633 0 01-.757-.372l-1.393-3.678-2.346-2.255a.844.844 0 01-.242-.775l.5-2.744-1.126.321-.993 2.22a.529.529 0 01-.957.006.494.494 0 01-.01-.378l1.001-2.505a.522.522 0 01.257-.277l.064-.03 2.507-1.233.017-.006.013-.004a.78.78 0 01.5-.075.704.704 0 01.512.355c.095.188.129.534.129.534.038.213.051.423.064.633.034.394.045.789.033 1.183a16.08 16.08 0 01-.142 1.785l-.044.348 1.528 2.006.056.076.001-.001z" fill="currentColor"/><path d="M11.767 7.71l2.202 1.897a.488.488 0 01.086.703.537.537 0 01-.715.095L11.567 9.17l.019-.108.023-.131.062-.34.022-.12.02-.119.014-.191.021-.242.009-.1.009-.108zM8.47 12c.174.166.368.337.562.507.309.271.626.533.904.745-.118.24-.316.634-.316.634l-2.116 3.326a.64.64 0 01-.859.2.59.59 0 01-.232-.785l1.765-3.325.024-.231c.019-.188.038-.376.064-.563l.092-.613.054.05.058.054z" fill="currentColor"/></symbol><symbol fill="none" viewBox="0 0 16 16" id="phone" xmlns="http://www.w3.org/2000/svg"><path d="M4.413 7.193a10.1 10.1 0 004.394 4.394l1.466-1.467c.18-.18.447-.24.68-.16a7.6 7.6 0 002.38.38c.367 0 .667.3.667.667v2.326c0 .367-.3.667-.667.667C7.073 14 2 8.927 2 2.667 2 2.3 2.3 2 2.667 2H5c.367 0 .667.3.667.667 0 .833.133 1.633.38 2.38a.669.669 0 01-.167.68L4.413 7.193z" fill="currentColor"/></symbol><symbol fill="none" viewBox="0 0 24 24" id="plan" xmlns="http://www.w3.org/2000/svg"><path d="M12.476 22H2V11.21M18.267 22H22v-6.053m0 0V2h-8m8 13.947h-9.067M14 2H2v9.21M14 2v5.79h5.6M2 11.21h6.4V5.684 17" stroke="currentColor" stroke-width="1.4" stroke-linecap="round" stroke-linejoin="round"/></symbol><symbol fill="none" viewBox="0 0 28 28" id="play" xmlns="http://www.w3.org/2000/svg"><path d="M6 2l20 12L6 26V2z" fill="#fff"/></symbol><symbol fill="none" viewBox="0 0 24 24" id="print" xmlns="http://www.w3.org/2000/svg"><path d="M6 17H4a1 1 0 01-1-1V8a1 1 0 011-1h16a1 1 0 011 1v8a1 1 0 01-1 1h-2" stroke="currentColor" stroke-width="2" stroke-linecap="round" stroke-linejoin="round"/><path d="M7 21h10a1 1 0 001-1v-4a1 1 0 00-1-1H7a1 1 0 00-1 1v4a1 1 0 001 1zm3-10h4M7 7h10a1 1 0 001-1V4a1 1 0 00-1-1H7a1 1 0 00-1 1v2a1 1 0 001 1z" stroke="currentColor" stroke-width="2" stroke-linecap="round" stroke-linejoin="round"/></symbol><symbol fill="none" viewBox="0 0 24 24" id="remove-minus" xmlns="http://www.w3.org/2000/svg"><path fill="#091B36" fill-rule="evenodd" d="M5 12a1 1 0 011-1h12a1 1 0 110 2H6a1 1 0 01-1-1z" clip-rule="evenodd"/></symbol><symbol fill="none" viewBox="0 0 16 16" id="round-info" xmlns="http://www.w3.org/2000/svg"><path d="M8 0C3.589 0 0 3.589 0 8s3.589 8 8 8 8-3.589 8-8-3.589-8-8-8zm0 14.546A6.553 6.553 0 011.455 8 6.553 6.553 0 018 1.455 6.553 6.553 0 0114.546 8 6.553 6.553 0 018 14.546z" fill="currentColor"/><path d="M8 3.394a.97.97 0 000 1.94.97.97 0 000-1.94zm0 3.394a.727.727 0 00-.727.727v4.364a.727.727 0 101.455 0V7.515a.727.727 0 00-.727-.727z" fill="currentColor"/></symbol><symbol fill="none" viewBox="0 0 24 24" id="round-play" xmlns="http://www.w3.org/2000/svg"><g clip-path="url(#boclip0)"><path d="M8.893 7.5l7.714 4.5-7.714 4.5v-9z" fill="currentColor"/></g><circle cx="12" cy="12" r="11.5" stroke="currentColor"/><defs><clipPath id="boclip0"><path fill="currentColor" transform="translate(8.25 7.5)" d="M0 0h9v9H0z"/></clipPath></defs></symbol><symbol fill="none" viewBox="0 0 17 11" id="route" xmlns="http://www.w3.org/2000/svg"><g clip-path="url(#bpclip0)" fill="currentColor"><path fill-rule="evenodd" clip-rule="evenodd" d="M14.704.455C15.97.455 17 1.52 17 2.811c0 1.215-.903 2.219-2.055 2.343-.492 1.026-.995 1.739-1.539 2.195-.576.485-1.207.668-1.814.608-1.214-.12-2.276-1.07-3.317-1.966-1.041-.896-2.064-1.746-2.933-1.897-.434-.075-.826-.013-1.268.304-.366.264-.765.722-1.172 1.432a2.352 2.352 0 011.695 2.263c0 1.3-1.037 2.362-2.301 2.362C1.037 10.455 0 9.393 0 8.093 0 6.88.91 5.871 2.061 5.75h.006c.5-.954 1.008-1.604 1.563-2.003a2.432 2.432 0 011.838-.44c1.206.21 2.262 1.184 3.3 2.077 1.037.893 2.05 1.695 2.896 1.78.423.041.817-.055 1.262-.429.376-.316.777-.85 1.19-1.649a2.354 2.354 0 01-1.707-2.275c0-1.292 1.03-2.356 2.295-2.356zm0 .794c-.85 0-1.526.703-1.526 1.562 0 .869.676 1.562 1.526 1.562.851 0 1.527-.693 1.527-1.562 0-.86-.676-1.562-1.527-1.562zM2.296 6.53c-.842 0-1.527.705-1.527 1.562 0 .867.685 1.569 1.527 1.569.85 0 1.532-.702 1.532-1.569 0-.857-.682-1.562-1.532-1.562z"/><path d="M14.704 1.249c-.85 0-1.526.703-1.526 1.562 0 .87.675 1.563 1.526 1.563.85 0 1.526-.694 1.526-1.563 0-.86-.675-1.562-1.526-1.562zM2.296 6.53C1.454 6.53.77 7.235.77 8.093c0 .866.684 1.568 1.526 1.568.85 0 1.532-.702 1.532-1.568 0-.858-.681-1.563-1.532-1.563z"/></g><defs><clipPath id="bpclip0"><path fill="#fff" transform="translate(0 .455)" d="M0 0h17v10H0z"/></clipPath></defs></symbol><symbol fill="none" viewBox="0 0 24 24" id="taxi" xmlns="http://www.w3.org/2000/svg"><path d="M24 8.2h-4.8V13H24V8.2zm-19.2 0H0V13h4.8V8.2zm9.6 0H9.6V13h4.8V8.2zM9.6 13H4.8v4.8h4.8V13zm9.6 0h-4.8v4.8h4.8V13z" fill="currentColor"/></symbol><symbol fill="none" viewBox="0 0 32 32" id="telegram" xmlns="http://www.w3.org/2000/svg"><path fill="currentColor" d="M12.794 19.838l-.39 5.86c.574 0 .828-.262 1.149-.574l2.76-2.685 5.746 4.244c1.057.583 1.82.281 2.083-.982L27.914 7.93c.386-1.548-.59-2.25-1.602-1.791L4.167 14.678c-1.511.606-1.503 1.45-.275 1.825l5.683 1.774 13.156-8.3c.621-.377 1.191-.175.723.24l-10.66 9.62v.001z"/></symbol><symbol fill="none" viewBox="0 0 32 32" id="telegram-link" xmlns="http://www.w3.org/2000/svg"><path fill-rule="evenodd" clip-rule="evenodd" d="M0 16c0 8.837 7.163 16 16 16s16-7.163 16-16S24.837 0 16 0 0 7.163 0 16zm13.067 7.333l.272-4.078 7.42-6.696c.325-.289-.072-.43-.504-.167l-9.157 5.776-3.955-1.234c-.854-.262-.86-.849.192-1.27L22.747 9.72c.704-.32 1.383.169 1.115 1.246l-2.625 12.368c-.183.88-.714 1.09-1.45.683l-3.998-2.953-1.922 1.868-.018.018c-.215.21-.393.382-.782.382z" fill="#CAA467"/></symbol><symbol fill="none" viewBox="0 0 16 16" id="times" xmlns="http://www.w3.org/2000/svg"><path d="M13.993 2.005L2.006 13.993M13.998 14L2 2" stroke="currentColor" stroke-width="1.5" stroke-linecap="round" stroke-linejoin="round"/></symbol><symbol fill="none" viewBox="0 0 28 28" id="tour" xmlns="http://www.w3.org/2000/svg"><g clip-path="url(#bua)" fill="currentColor"><path d="M17.625 21.965a.82.82 0 01-.103-1.634c2.593-.33 4.914-1.033 6.536-1.978 1.484-.865 2.302-1.881 2.302-2.862 0-1.081-.957-1.966-1.759-2.518a.82.82 0 01.93-1.352c1.615 1.112 2.47 2.45 2.47 3.87 0 1.612-1.078 3.092-3.117 4.28-1.834 1.068-4.308 1.825-7.154 2.188a.887.887 0 01-.105.006zM13.8 20.79l-2.188-2.188a.82.82 0 10-1.16 1.16l.64.64c-2.451-.254-4.678-.824-6.401-1.653-1.939-.932-3.05-2.12-3.05-3.258 0-.965.796-1.969 2.24-2.825a.82.82 0 10-.836-1.412C.528 12.746 0 14.382 0 15.491c0 1.82 1.413 3.502 3.98 4.736 1.991.958 4.568 1.6 7.375 1.848l-.903.902a.82.82 0 001.16 1.16L13.8 21.95a.82.82 0 000-1.16z"/><path d="M8.591 13.848v-.197c0-.697-.426-.832-.997-.832-.354 0-.468-.311-.468-.623s.114-.623.468-.623c.394 0 .81-.052.81-.894 0-.603-.343-.748-.769-.748-.509 0-.769.125-.769.53 0 .353-.156.592-.758.592-.748 0-.842-.156-.842-.655 0-.81.582-1.86 2.37-1.86 1.319 0 2.316.478 2.316 1.881 0 .759-.28 1.465-.8 1.704.613.229 1.06.686 1.06 1.528v.197c0 1.704-1.174 2.348-2.629 2.348-1.787 0-2.473-1.09-2.473-1.963 0-.468.198-.593.77-.593.664 0 .83.146.83.54 0 .489.458.603.925.603.707 0 .956-.26.956-.935zm7.928-.198v.094c0 1.787-1.112 2.452-2.546 2.452-1.434 0-2.556-.665-2.556-2.452v-2.753c0-1.788 1.153-2.453 2.65-2.453 1.756 0 2.452 1.091 2.452 1.954 0 .499-.24.654-.759.654-.446 0-.841-.114-.841-.592 0-.395-.416-.602-.904-.602-.613 0-.977.322-.977 1.039v.935c.333-.364.8-.457 1.299-.457 1.184 0 2.182.519 2.182 2.182zm-3.481.208c0 .717.353 1.03.935 1.03.582 0 .925-.313.925-1.03v-.093c0-.759-.343-1.05-.935-1.05-.561 0-.925.27-.925.956v.188zm4.738-.114v-2.753c0-1.788 1.112-2.453 2.546-2.453 1.434 0 2.556.665 2.556 2.453v2.753c0 1.787-1.122 2.452-2.556 2.452s-2.546-.665-2.546-2.452zm3.481-2.753c0-.717-.353-1.04-.935-1.04-.582 0-.925.323-.925 1.04v2.753c0 .717.343 1.04.925 1.04.582 0 .935-.323.935-1.04v-2.753zm3.591-2.46a2.464 2.464 0 01-2.461-2.46 2.464 2.464 0 012.46-2.462A2.464 2.464 0 0127.31 6.07a2.464 2.464 0 01-2.461 2.461zm0-3.281a.821.821 0 000 1.64.821.821 0 000-1.64z"/></g><defs><clipPath id="bua"><path fill="currentColor" d="M0 0h28v28H0z"/></clipPath></defs></symbol><symbol fill="none" viewBox="0 0 32 32" id="viber-link" xmlns="http://www.w3.org/2000/svg"><path fill-rule="evenodd" clip-rule="evenodd" d="M16 0c8.837 0 16 7.164 16 16 0 8.837-7.163 16-16 16S0 24.837 0 16C0 7.164 7.163 0 16 0zm3.486 14.345c-.064-.526-.226-.938-.512-1.303-.373-.47-.848-.752-1.553-.92-.459-.11-.644-.098-.81.054-.155.142-.185.426-.067.61.083.135.18.183.446.235.355.065.6.15.824.278.473.273.694.702.718 1.395.01.325.039.425.152.54a.49.49 0 00.745-.082c.058-.095.067-.137.073-.358a3.521 3.521 0 00-.016-.45zm.007-3.223c1.126.911 1.755 2.206 1.849 3.815.04.633-.013.84-.237.958a.477.477 0 01-.587-.091c-.104-.107-.144-.253-.142-.511.005-.715-.16-1.512-.428-2.066a3.99 3.99 0 00-1.39-1.593 4.198 4.198 0 00-1.903-.65c-.439-.038-.596-.112-.68-.322-.052-.126-.038-.344.023-.442a.597.597 0 01.28-.215c.097-.029.664.021.972.082.84.171 1.608.523 2.243 1.035zm3.764 10.317a1.783 1.783 0 00-.158-.317c-.33-.503-2.108-1.901-2.995-2.359-.507-.261-.882-.349-1.16-.267-.3.085-.457.225-.959.852-.202.25-.409.486-.464.523a1.22 1.22 0 01-.593.172c-.439-.003-1.234-.288-1.846-.664-.475-.29-1.084-.811-1.551-1.327-.552-.605-.927-1.14-1.224-1.742-.383-.775-.48-1.248-.32-1.594.04-.087.092-.18.115-.21.024-.026.27-.23.544-.451.535-.428.622-.526.722-.82.126-.373.092-.753-.103-1.137-.15-.29-.54-.925-.824-1.335-.375-.54-1.31-1.692-1.496-1.848-.336-.275-.767-.322-1.242-.137-.501.195-1.441.957-1.843 1.488-.362.481-.501.822-.522 1.272-.019.37.013.523.207.996 1.52 3.713 3.788 6.676 6.905 9.03 1.627 1.229 3.315 2.165 5.066 2.804 1.021.373 1.465.392 1.987.085.22-.132.767-.695 1.071-1.105.504-.682.69-.997.743-1.248.037-.172.008-.47-.06-.661zm-.533-8.622c.32.832.473 1.58.506 2.49.006.18.003.509-.008.732-.024.427-.048.512-.17.626-.199.185-.585.141-.731-.083-.076-.12-.087-.208-.072-.708.042-1.478-.257-2.636-.977-3.793-.861-1.389-2.148-2.324-3.823-2.782a9.501 9.501 0 00-1.346-.263c-.365-.048-.445-.068-.535-.123-.271-.174-.275-.615-.004-.792.14-.093.243-.097.699-.039 1.336.167 2.528.564 3.508 1.164.703.43 1.145.818 1.715 1.495.603.723.923 1.257 1.238 2.076z" fill="#CAA467"/></symbol><symbol fill="none" viewBox="0 0 32 32" id="vk" xmlns="http://www.w3.org/2000/svg"><path d="M28.431 8c.927 0 1.121.459.927 1.083-.39 1.718-4.122 6.776-4.122 6.776-.325.5-.454.75 0 1.312.325.437 1.395 1.311 2.11 2.123 1.315 1.424 2.307 2.626 2.583 3.454.253.83-.185 1.252-1.06 1.252h-3.063c-1.169 0-1.511-.896-3.588-2.895-1.817-1.686-2.596-1.905-3.05-1.905-.617 0-.802.168-.802 1.01v2.644c0 .725-.24 1.146-2.188 1.146-3.245 0-6.811-1.896-9.343-5.393C3.038 13.487 2 9.614 2 8.833 2 8.396 2.175 8 3.05 8h3.063c.783 0 1.078.33 1.371 1.146 1.499 4.199 4.025 7.869 5.063 7.869.39 0 .568-.173.568-1.125v-4.34c-.114-1.998-1.217-2.162-1.217-2.873 0-.33.293-.677.78-.677h4.813c.65 0 .875.334.875 1.083v5.84c0 .624.282.842.477.842.39 0 .714-.218 1.428-.905 2.207-2.373 3.764-6.027 3.764-6.027.195-.437.554-.833 1.333-.833h3.063z" fill="currentColor"/></symbol><symbol fill="none" viewBox="0 0 32 32" id="vk-link" xmlns="http://www.w3.org/2000/svg"><path fill-rule="evenodd" clip-rule="evenodd" d="M16 0C7.163 0 0 7.163 0 16s7.163 16 16 16 16-7.163 16-16S24.837 0 16 0zm1.303 21.05c-.158.167-.466.2-.466.2h-1.02s-2.25.134-4.233-1.892c-2.162-2.21-4.07-6.594-4.07-6.594s-.11-.288.008-.426c.135-.157.501-.167.501-.167l2.439-.015s.23.037.394.155c.136.099.212.281.212.281s.394.979.915 1.864c1.02 1.728 1.494 2.105 1.84 1.92.503-.27.352-2.442.352-2.442s.01-.788-.254-1.14c-.203-.272-.587-.351-.757-.374-.137-.018.088-.33.38-.47.44-.211 1.214-.224 2.13-.215.713.008.919.051 1.198.118.646.153.626.644.583 1.704-.013.317-.028.685-.028 1.11 0 .096-.003.197-.006.302-.015.543-.033 1.165.332 1.397.187.118.643.017 1.786-1.887.542-.903.948-1.964.948-1.964s.089-.19.227-.27c.14-.083.331-.058.331-.058l2.566-.016s.771-.09.896.252c.13.358-.288 1.195-1.337 2.567-.994 1.301-1.478 1.78-1.434 2.204.033.31.347.59.951 1.14 1.26 1.148 1.598 1.753 1.68 1.898l.014.027c.566.92-.626.992-.626.992l-2.28.03s-.49.096-1.134-.338c-.337-.228-.667-.599-.981-.953-.48-.54-.923-1.038-1.302-.92-.635.198-.616 1.54-.616 1.54s.005.288-.139.44z" fill="#CAA467"/></symbol><symbol fill="none" viewBox="0 0 16 16" id="whatsapp" xmlns="http://www.w3.org/2000/svg"><path fill-rule="evenodd" clip-rule="evenodd" d="M13.306 2.672A7.385 7.385 0 008.048.492C3.951.492.617 3.826.615 7.925c0 1.31.342 2.588.992 3.716L.553 15.492l3.94-1.033a7.426 7.426 0 003.552.904h.003c4.097 0 7.431-3.334 7.433-7.433a7.387 7.387 0 00-2.175-5.258zM8.048 14.108h-.002a6.171 6.171 0 01-3.145-.861l-.225-.134-2.339.613.624-2.28-.146-.233a6.162 6.162 0 01-.945-3.288 6.187 6.187 0 016.18-6.177c1.65 0 3.202.644 4.368 1.811a6.141 6.141 0 011.808 4.371 6.187 6.187 0 01-6.178 6.178zm3.389-4.627c-.186-.093-1.099-.542-1.27-.604-.17-.062-.293-.093-.417.093s-.48.604-.588.728c-.109.124-.217.14-.403.046-.185-.093-.784-.289-1.493-.921a5.602 5.602 0 01-1.033-1.287c-.109-.186-.001-.277.081-.379.201-.25.403-.511.464-.635.062-.124.031-.233-.015-.326S6.345 5.19 6.19 4.817c-.15-.362-.304-.313-.418-.318a7.425 7.425 0 00-.356-.007.682.682 0 00-.495.232c-.17.186-.65.636-.65 1.55s.666 1.797.759 1.921c.092.124 1.31 2 3.172 2.804.443.192.79.306 1.059.392.445.141.85.121 1.17.073.357-.053 1.099-.45 1.253-.883.155-.434.155-.806.109-.883-.047-.078-.17-.124-.356-.217z" fill="currentColor"/></symbol><symbol fill="none" viewBox="0 0 32 32" id="whatsapp-fill" xmlns="http://www.w3.org/2000/svg"><path fill-rule="evenodd" clip-rule="evenodd" d="M16.057 3l.371.005a12.874 12.874 0 018.787 3.772A12.76 12.76 0 0129 15.884c-.003 7.098-5.81 12.875-12.947 12.875a12.985 12.985 0 01-6.185-1.568l-.347-.188-6.098 1.591 1.63-5.922-.21-.363-.207-.37a12.811 12.811 0 01-1.52-6.065C3.12 8.88 8.758 3.168 15.75 3.004L16.057 3zm-4.934 6.466c-.233 0-.61.088-.93.434-.319.347-1.218 1.186-1.218 2.892 0 1.707 1.247 3.356 1.422 3.587.174.23 2.456 3.733 5.95 5.235.832.357 1.48.57 1.987.73.833.264 1.592.227 2.193.138.67-.1 2.061-.84 2.352-1.65.29-.81.29-1.503.203-1.648-.088-.145-.319-.231-.668-.405-.348-.173-2.06-1.012-2.38-1.128-.32-.115-.551-.174-.784.173-.232.348-.9 1.129-1.103 1.36-.202.232-.406.26-.755.087-.348-.174-1.47-.54-2.8-1.721-1.037-.919-1.736-2.054-1.938-2.402-.204-.347-.022-.534.152-.707.157-.155.349-.405.522-.608.175-.202.233-.347.349-.578.116-.232.058-.434-.03-.607-.086-.174-.783-1.88-1.073-2.574-.283-.677-.57-.584-.784-.596a14.58 14.58 0 00-.667-.012z" fill="currentColor"/></symbol><symbol fill="none" viewBox="0 0 32 32" id="whatsapp-link" xmlns="http://www.w3.org/2000/svg"><path fill-rule="evenodd" clip-rule="evenodd" d="M0 16c0 8.837 7.163 16 16 16s16-7.163 16-16c0-8.836-7.163-16-16-16S0 7.164 0 16zm26.041-.612c-.002 5.244-4.268 9.512-9.514 9.514h-.004c-1.592 0-3.157-.4-4.546-1.158l-5.044 1.323 1.35-4.93a9.497 9.497 0 01-1.27-4.757c.002-5.245 4.27-9.513 9.514-9.513a9.452 9.452 0 016.73 2.79 9.456 9.456 0 012.784 6.73z" fill="#CAA467"/><path fill-rule="evenodd" clip-rule="evenodd" d="M9.217 22.807l2.993-.785.289.17a7.895 7.895 0 004.025 1.103h.003c4.359 0 7.906-3.547 7.908-7.908 0-2.113-.821-4.1-2.314-5.594a7.854 7.854 0 00-5.59-2.32c-4.363 0-7.91 3.548-7.912 7.908 0 1.494.418 2.95 1.21 4.208l.187.3-.799 2.918zm11.778-5.37c.166.08.278.133.325.213.06.1.06.575-.138 1.13-.198.556-1.148 1.063-1.605 1.131-.41.061-.928.087-1.497-.094-.345-.11-.788-.256-1.355-.5-2.229-.963-3.735-3.123-4.02-3.531l-.041-.06-.002-.002c-.126-.168-.969-1.293-.969-2.457 0-1.095.538-1.668.786-1.933l.046-.05a.873.873 0 01.634-.297c.158 0 .317.001.456.008h.053c.138 0 .311-.001.482.408l.262.637c.205.499.43 1.049.47 1.128.06.12.1.258.02.417l-.033.068a1.35 1.35 0 01-.204.328l-.122.147c-.082.1-.164.199-.235.27-.12.119-.243.247-.104.485.138.238.615 1.017 1.322 1.647.76.677 1.42.964 1.755 1.11.065.027.118.05.157.07.238.119.376.099.515-.06.139-.158.594-.694.753-.932.158-.238.317-.198.535-.119.218.08 1.386.655 1.624.774l.13.063z" fill="#CAA467"/></symbol><symbol fill="none" viewBox="0 0 32 32" id="youtube-link" xmlns="http://www.w3.org/2000/svg"><path fill-rule="evenodd" clip-rule="evenodd" d="M16 0C7.163 0 0 7.163 0 16s7.163 16 16 16 16-7.163 16-16S24.837 0 16 0zm6.668 10.5a2.167 2.167 0 011.509 1.549c.357 1.366.357 4.218.357 4.218s0 2.85-.357 4.218a2.167 2.167 0 01-1.509 1.549C21.338 22.4 16 22.4 16 22.4s-5.337 0-6.668-.366a2.167 2.167 0 01-1.509-1.55c-.356-1.366-.356-4.217-.356-4.217s0-2.852.356-4.218a2.167 2.167 0 011.51-1.55c1.33-.366 6.667-.366 6.667-.366s5.337 0 6.668.367z" fill="#CAA467"/><path d="M14.4 19.2v-5.334l4.267 2.667-4.267 2.666z" fill="#CAA467"/></symbol></svg>